<svg width="132" height="132" xmlns="http://www.w3.org/2000/svg" xmlns:xlink="http://www.w3.org/1999/xlink" xml:space="preserve" overflow="hidden"><g transform="translate(-300 -496)"><g><path d="M333.295 496 323.866 514.857 328.286 514.857 338.156 496 333.295 496ZM371.009 496 361.58 514.857 366 514.857 375.871 496 371.009 496ZM408.723 496 399.295 514.857 403.714 514.857 413.585 496 408.723 496ZM309.65 505.429 300.221 524.286 304.641 524.286 314.53 505.429 309.65 505.429ZM347.438 505.429 338.009 524.286 342.429 524.286 352.299 505.429 347.438 505.429ZM385.152 505.429 375.723 524.286 380.143 524.286 390.013 505.429 385.152 505.429ZM422.866 505.429 413.438 524.286 417.857 524.286 427.728 505.429 422.866 505.429ZM328.286 533.714 300 562 314.143 562 314.143 628 328.286 628 328.286 562 403.714 562 403.714 628 417.857 628 417.857 562 432 562 403.714 533.714 328.286 533.714Z" fill="#C45C24" fill-rule="nonzero" fill-opacity="1"/></g></g></svg>