<svg width="133" height="134" xmlns="http://www.w3.org/2000/svg" xmlns:xlink="http://www.w3.org/1999/xlink" xml:space="preserve" overflow="hidden"><defs><clipPath id="clip0"><rect x="73" y="483" width="132" height="132"/></clipPath><clipPath id="clip1"><rect x="73" y="483" width="132" height="132"/></clipPath><clipPath id="clip2"><rect x="73" y="483" width="132" height="132"/></clipPath></defs><g transform="translate(-72 -482)"><g><g clip-path="url(#clip0)"><g clip-path="url(#clip1)"><g clip-path="url(#clip2)"><path d="M199.261 554.739 160.522 554.739 160.522 542.936C169.924 539.937 177.436 535.006 181.88 528.913L96.1211 528.913C100.564 535.006 108.076 539.937 117.478 542.936L117.478 554.739 78.7392 554.739C76.3629 554.739 74.4347 556.667 74.4347 559.044 74.4347 561.42 76.3629 563.348 78.7392 563.348L121.783 563.348 156.217 563.348 199.261 563.348C201.637 563.348 203.566 561.42 203.566 559.044 203.565 556.667 201.637 554.739 199.261 554.739Z" fill="#6995BB" fill-rule="nonzero" fill-opacity="1"/><path d="M190.652 511.696 143.304 511.696 143.304 500.217C143.304 495.47 147.166 491.609 151.913 491.609 156.66 491.609 160.522 495.47 160.522 500.217 160.522 502.594 162.45 504.522 164.826 504.522 167.202 504.522 169.131 502.594 169.131 500.217 169.131 490.723 161.407 483 151.913 483 146.774 483 142.157 485.265 139 488.847 135.843 485.265 131.226 483 126.087 483 116.593 483 108.869 490.723 108.869 500.217 108.869 502.594 110.798 504.522 113.174 504.522 115.55 504.522 117.478 502.594 117.478 500.217 117.478 495.47 121.34 491.609 126.087 491.609 130.834 491.609 134.696 495.47 134.696 500.217L134.696 511.696 87.3478 511.696C84.9715 511.696 83.0433 513.624 83.0433 516 83.0433 518.377 84.9715 520.305 87.3478 520.305L190.652 520.305C193.028 520.305 194.957 518.377 194.957 516 194.957 513.624 193.028 511.696 190.652 511.696Z" fill="#6995BB" fill-rule="nonzero" fill-opacity="1"/><path d="M191.692 571.956 86.3083 571.956C91.5963 582.264 102.993 590.586 117.478 594.794L117.478 606.391 104.565 606.391C102.189 606.391 100.261 608.32 100.261 610.696 100.261 613.072 102.189 615 104.565 615L121.783 615 156.217 615 173.435 615C175.811 615 177.739 613.072 177.739 610.696 177.739 608.32 175.811 606.391 173.435 606.391L160.522 606.391 160.522 594.794C175.007 590.586 186.404 582.265 191.692 571.956Z" fill="#6995BB" fill-rule="nonzero" fill-opacity="1"/></g></g></g></g></g></svg>