<svg width="133" height="133" xmlns="http://www.w3.org/2000/svg" xmlns:xlink="http://www.w3.org/1999/xlink" xml:space="preserve" overflow="hidden"><g transform="translate(-1121 -500)"><g><g><g><g><path d="M28.3555 125.634C28.5045 129.192 31.4322 132 34.9926 132L97.008 132C100.568 132 103.496 129.192 103.645 125.634L108.074 32.1428 23.9268 32.1428 28.3555 125.634ZM80.0289 55.3644C80.0289 53.8747 81.2369 52.6665 82.7272 52.6665L87.0428 52.6665C88.5322 52.6665 89.7411 53.8744 89.7411 55.3644L89.7411 108.778C89.7411 110.268 88.5332 111.476 87.0428 111.476L82.7272 111.476C81.2375 111.476 80.0289 110.269 80.0289 108.778L80.0289 55.3644ZM61.1446 55.3644C61.1446 53.8747 62.3525 52.6665 63.8425 52.6665L68.1581 52.6665C69.6475 52.6665 70.8561 53.8744 70.8561 55.3644L70.8561 108.778C70.8561 110.268 69.6485 111.476 68.1581 111.476L63.8425 111.476C62.3528 111.476 61.1446 110.269 61.1446 108.778L61.1446 55.3644ZM42.2595 55.3644C42.2595 53.8747 43.4675 52.6665 44.9575 52.6665L49.2734 52.6665C50.7631 52.6665 51.9714 53.8744 51.9714 55.3644L51.9714 108.778C51.9714 110.268 50.7635 111.476 49.2734 111.476L44.9575 111.476C43.4678 111.476 42.2595 110.269 42.2595 108.778L42.2595 55.3644Z" fill="#3A3A3A" fill-rule="nonzero" fill-opacity="1" transform="matrix(1 0 0 1.00758 1122 500)"/><path d="M111.023 6.79998 82.4128 6.79998 82.4128 1.39115C82.4128 0.623027 81.7901 0 81.0216 0L50.9784 0C50.2102 0 49.5875 0.623027 49.5875 1.39115L49.5875 6.79966 20.9774 6.79966C18.675 6.79966 16.8088 8.66615 16.8088 10.9686L16.8088 24.0647 115.191 24.0647 115.191 10.9689C115.191 8.66648 113.325 6.79998 111.023 6.79998Z" fill="#3A3A3A" fill-rule="nonzero" fill-opacity="1" transform="matrix(1 0 0 1.00758 1122 500)"/></g></g></g></g></g></svg>