<svg width="632" height="1366" xmlns="http://www.w3.org/2000/svg" xmlns:xlink="http://www.w3.org/1999/xlink" xml:space="preserve" overflow="hidden"><defs><clipPath id="clip0"><rect x="2846" y="586" width="632" height="1366"/></clipPath><clipPath id="clip1"><rect x="2846" y="586" width="632" height="1366"/></clipPath><clipPath id="clip2"><rect x="2850" y="1270" width="105" height="105"/></clipPath><clipPath id="clip3"><rect x="2850" y="1270" width="105" height="105"/></clipPath><clipPath id="clip4"><rect x="2850" y="1270" width="105" height="105"/></clipPath></defs><g clip-path="url(#clip0)" transform="translate(-2846 -586)"><g clip-path="url(#clip1)"><g clip-path="url(#clip2)"><g clip-path="url(#clip3)"><g clip-path="url(#clip4)"><path d="M2950.43 1327.07 2919.62 1327.07 2919.62 1317.68C2927.1 1315.29 2933.07 1311.37 2936.61 1306.52L2868.39 1306.52C2871.93 1311.37 2877.9 1315.29 2885.38 1317.68L2885.38 1327.07 2854.57 1327.07C2852.68 1327.07 2851.14 1328.6 2851.14 1330.49 2851.14 1332.38 2852.68 1333.91 2854.57 1333.91L2888.8 1333.91 2916.2 1333.91 2950.43 1333.91C2952.32 1333.91 2953.86 1332.38 2953.86 1330.49 2953.86 1328.6 2952.32 1327.07 2950.43 1327.07Z" fill="#4C4F52" fill-rule="nonzero" fill-opacity="1"/><path d="M2943.59 1292.83 2905.92 1292.83 2905.92 1283.7C2905.92 1279.92 2909 1276.85 2912.77 1276.85 2916.55 1276.85 2919.62 1279.92 2919.62 1283.7 2919.62 1285.59 2921.15 1287.12 2923.04 1287.12 2924.93 1287.12 2926.47 1285.59 2926.47 1283.7 2926.47 1276.14 2920.32 1270 2912.77 1270 2908.68 1270 2905.01 1271.8 2902.5 1274.65 2899.99 1271.8 2896.32 1270 2892.23 1270 2884.68 1270 2878.53 1276.14 2878.53 1283.7 2878.53 1285.59 2880.07 1287.12 2881.96 1287.12 2883.85 1287.12 2885.38 1285.59 2885.38 1283.7 2885.38 1279.92 2888.45 1276.85 2892.23 1276.85 2896 1276.85 2899.08 1279.92 2899.08 1283.7L2899.08 1292.83 2861.41 1292.83C2859.52 1292.83 2857.99 1294.36 2857.99 1296.25 2857.99 1298.14 2859.52 1299.67 2861.41 1299.67L2943.59 1299.67C2945.48 1299.67 2947.01 1298.14 2947.01 1296.25 2947.01 1294.36 2945.48 1292.83 2943.59 1292.83Z" fill="#4C4F52" fill-rule="nonzero" fill-opacity="1"/><path d="M2944.41 1340.76 2860.59 1340.76C2864.79 1348.96 2873.86 1355.58 2885.38 1358.93L2885.38 1368.15 2875.11 1368.15C2873.22 1368.15 2871.68 1369.69 2871.68 1371.58 2871.68 1373.47 2873.22 1375 2875.11 1375L2888.8 1375 2916.2 1375 2929.89 1375C2931.78 1375 2933.32 1373.47 2933.32 1371.58 2933.32 1369.69 2931.78 1368.15 2929.89 1368.15L2919.62 1368.15 2919.62 1358.93C2931.14 1355.58 2940.21 1348.96 2944.41 1340.76Z" fill="#4C4F52" fill-rule="nonzero" fill-opacity="1"/></g></g></g><g><g><g><path d="M26.4843 0 18.9843 15 22.5 15 30.3515 0 26.4843 0ZM56.4843 0 48.9843 15 52.4999 15 60.3515 0 56.4843 0ZM86.4839 0 78.9839 15 82.4999 15 90.3516 0 86.4839 0ZM7.67579 7.49999 0.175781 22.5 3.6914 22.5 11.5576 7.49999 7.67579 7.49999ZM37.7343 7.49999 30.2343 22.5 33.7499 22.5 41.6015 7.49999 37.7343 7.49999ZM67.7343 7.49999 60.2343 22.5 63.7499 22.5 71.6015 7.49999 67.7343 7.49999ZM97.7338 7.49999 90.2339 22.5 93.7498 22.5 101.602 7.49999 97.7338 7.49999ZM22.5 30 0 52.4999 11.25 52.4999 11.25 105 22.5 105 22.5 52.4999 82.4999 52.4999 82.4999 105 93.7498 105 93.7498 52.4999 105 52.4999 82.4999 30 22.5 30Z" fill="#4C4F52" fill-rule="nonzero" fill-opacity="1" transform="matrix(1 0 0 1 3112 1400)"/></g></g></g><g><g><g><path d="M3167 1029.48 3157.25 1015.99 3151.11 1015.99 3151.11 1001.19 3162 1001.19 3162 981.184 3151.11 981.184 3151.11 976.757 3146.59 976.757 3146.59 981.184 3082.41 981.184 3082.41 976.757 3077.89 976.757 3077.89 981.184 3067 981.184 3067 1001.19 3077.89 1001.19 3077.89 1015.99 3071.75 1015.99 3062 1029.48 3062 1033.2 3069.32 1033.2 3069.32 1050.24 3073.84 1050.24 3073.84 1033.2 3077.89 1033.2 3077.89 1043.06 3082.41 1043.06 3082.41 1033.2 3146.59 1033.2 3146.59 1043.06 3151.11 1043.06 3151.11 1033.2 3155.16 1033.2 3155.16 1050.24 3159.68 1050.24 3159.68 1033.2 3167 1033.2 3167 1029.48ZM3082.41 1015.99 3082.41 1001.19 3146.59 1001.19 3146.59 1015.99 3082.41 1015.99Z" fill="#4C4F52" fill-rule="nonzero" fill-opacity="1"/></g></g></g><g><g><g><path d="M54.2108 98.6628 15.3609 98.6628C15.3609 98.6628 33.9705 61.7276 6.25675 61.7276L6.25675 49.4179 80.1643 49.4179C80.1643 49.4179 80.7016 56.9346 67.1196 66.0078 46.1999 79.9666 54.2108 98.6628 54.2108 98.6628Z" fill="#4C4F52" fill-rule="evenodd" fill-opacity="1" transform="matrix(1.00952 0 0 1 3387.71 1470.09)"/><path d="M30.8823 37.0588 80.1643 37.0588 80.1643 43.1055 30.8823 43.1055Z" fill="#4C4F52" fill-rule="evenodd" fill-opacity="1" transform="matrix(1.00952 0 0 1 3387.71 1470.09)"/><path d="M0.0741175 0.0555881 0.0741175 43.1302 24.7058 43.1302 24.7058 0.0555881 0.0741175 0.0555881ZM18.5294 18.7517 12.3529 18.7517 12.3529 6.17646 18.5294 6.17646 18.5294 18.7517Z" fill="#4C4F52" fill-rule="evenodd" fill-opacity="1" transform="matrix(1.00952 0 0 1 3387.71 1470.09)"/></g></g></g><g><g><g><path d="M22.5555 99.9366C22.674 102.767 25.0029 105 27.8351 105L77.1656 105C79.9978 105 82.3267 102.767 82.4452 99.9366L85.968 25.5682 19.0327 25.5682 22.5555 99.9366ZM63.6595 44.04C63.6595 42.855 64.6203 41.8939 65.8059 41.8939L69.2387 41.8939C70.4235 41.8939 71.3851 42.8547 71.3851 44.04L71.3851 86.5284C71.3851 87.7136 70.4243 88.6745 69.2387 88.6745L65.8059 88.6745C64.6209 88.6745 63.6595 87.7141 63.6595 86.5284L63.6595 44.04ZM48.6378 44.04C48.6378 42.855 49.5987 41.8939 50.7839 41.8939L54.2168 41.8939C55.4015 41.8939 56.3629 42.8547 56.3629 44.04L56.3629 86.5284C56.3629 87.7136 55.4023 88.6745 54.2168 88.6745L50.7839 88.6745C49.5989 88.6745 48.6378 87.7141 48.6378 86.5284L48.6378 44.04ZM33.6156 44.04C33.6156 42.855 34.5764 41.8939 35.7617 41.8939L39.1948 41.8939C40.3798 41.8939 41.341 42.8547 41.341 44.04L41.341 86.5284C41.341 87.7136 40.3801 88.6745 39.1948 88.6745L35.7617 88.6745C34.5767 88.6745 33.6156 87.7141 33.6156 86.5284L33.6156 44.04Z" fill="#4C4F52" fill-rule="nonzero" fill-opacity="1" transform="matrix(1 0 0 1.00952 3297 1132)"/><path d="M88.3136 5.40908 65.5557 5.40908 65.5557 1.1066C65.5557 0.495591 65.0604 0 64.4492 0L40.551 0C39.94 0 39.4447 0.495591 39.4447 1.1066L39.4447 5.40883 16.6866 5.40883C14.8551 5.40883 13.3707 6.89354 13.3707 8.72502L13.3707 19.1424 91.6295 19.1424 91.6295 8.72528C91.6295 6.8938 90.1451 5.40908 88.3136 5.40908Z" fill="#4C4F52" fill-rule="nonzero" fill-opacity="1" transform="matrix(1 0 0 1.00952 3297 1132)"/></g></g></g><g><g><g><path d="M3025.74 797.751 2986.89 797.751C2986.89 797.751 3005.5 760.816 2977.79 760.816L2977.79 748.506 3051.69 748.506C3051.69 748.506 3052.23 756.023 3038.65 765.096 3017.73 779.055 3025.74 797.751 3025.74 797.751Z" fill="#4C4F52" fill-rule="evenodd" fill-opacity="1"/><path d="M3002.41 736.147 3051.69 736.147 3051.69 742.194 3002.41 742.194Z" fill="#4C4F52" fill-rule="evenodd" fill-opacity="1"/><path d="M2971.6 699.144 2971.6 742.219 2996.24 742.219 2996.24 699.144 2971.6 699.144ZM2990.06 717.84 2983.88 717.84 2983.88 705.265 2990.06 705.265 2990.06 717.84Z" fill="#4C4F52" fill-rule="evenodd" fill-opacity="1"/></g></g></g><g><g><g><path d="M3382.48 814 3374.98 829 3378.5 829 3386.35 814 3382.48 814ZM3412.48 814 3404.98 829 3408.5 829 3416.35 814 3412.48 814ZM3442.48 814 3434.98 829 3438.5 829 3446.35 814 3442.48 814ZM3363.68 821.5 3356.18 836.5 3359.69 836.5 3367.56 821.5 3363.68 821.5ZM3393.73 821.5 3386.23 836.5 3389.75 836.5 3397.6 821.5 3393.73 821.5ZM3423.73 821.5 3416.23 836.5 3419.75 836.5 3427.6 821.5 3423.73 821.5ZM3453.73 821.5 3446.23 836.5 3449.75 836.5 3457.6 821.5 3453.73 821.5ZM3378.5 844 3356 866.5 3367.25 866.5 3367.25 919 3378.5 919 3378.5 866.5 3438.5 866.5 3438.5 919 3449.75 919 3449.75 866.5 3461 866.5 3438.5 844 3378.5 844Z" fill="#4C4F52" fill-rule="nonzero" fill-opacity="1"/></g></g></g><g><g><g><path d="M3294.56 1946.94C3294.67 1949.77 3297 1952 3299.84 1952L3349.17 1952C3352 1952 3354.33 1949.77 3354.45 1946.94L3357.97 1872.57 3291.03 1872.57 3294.56 1946.94ZM3335.66 1891.04C3335.66 1889.85 3336.62 1888.89 3337.81 1888.89L3341.24 1888.89C3342.42 1888.89 3343.39 1889.85 3343.39 1891.04L3343.39 1933.53C3343.39 1934.71 3342.42 1935.67 3341.24 1935.67L3337.81 1935.67C3336.62 1935.67 3335.66 1934.71 3335.66 1933.53L3335.66 1891.04ZM3320.64 1891.04C3320.64 1889.85 3321.6 1888.89 3322.78 1888.89L3326.22 1888.89C3327.4 1888.89 3328.36 1889.85 3328.36 1891.04L3328.36 1933.53C3328.36 1934.71 3327.4 1935.67 3326.22 1935.67L3322.78 1935.67C3321.6 1935.67 3320.64 1934.71 3320.64 1933.53L3320.64 1891.04ZM3305.62 1891.04C3305.62 1889.85 3306.58 1888.89 3307.76 1888.89L3311.2 1888.89C3312.38 1888.89 3313.34 1889.85 3313.34 1891.04L3313.34 1933.53C3313.34 1934.71 3312.38 1935.67 3311.2 1935.67L3307.76 1935.67C3306.58 1935.67 3305.62 1934.71 3305.62 1933.53L3305.62 1891.04Z" fill="#4C4F52" fill-rule="nonzero" fill-opacity="1"/><path d="M3360.31 1852.41 3337.56 1852.41 3337.56 1848.11C3337.56 1847.5 3337.06 1847 3336.45 1847L3312.55 1847C3311.94 1847 3311.44 1847.5 3311.44 1848.11L3311.44 1852.41 3288.69 1852.41C3286.86 1852.41 3285.37 1853.89 3285.37 1855.72L3285.37 1866.14 3363.63 1866.14 3363.63 1855.73C3363.63 1853.89 3362.15 1852.41 3360.31 1852.41Z" fill="#4C4F52" fill-rule="nonzero" fill-opacity="1"/></g></g></g><g><g><g><path d="M100.435 57.0652 69.6194 57.0652 69.6194 47.6763C77.0982 45.2908 83.0743 41.3681 86.6087 36.5217L18.3918 36.5217C21.9255 41.3681 27.9017 45.291 35.3802 47.6763L35.3802 57.0652 4.56524 57.0652C2.67503 57.0652 1.14126 58.5989 1.14126 60.4891 1.14126 62.3793 2.67503 63.9131 4.56524 63.9131L38.8044 63.9131 66.1956 63.9131 100.435 63.9131C102.325 63.9131 103.859 62.3793 103.859 60.4891 103.859 58.5987 102.325 57.0652 100.435 57.0652Z" fill="#4C4F52" fill-rule="nonzero" fill-opacity="1" transform="matrix(1 0 0 1.00953 3212 590)"/><path d="M93.5868 22.826 55.9239 22.826 55.9239 13.6957C55.9239 9.91961 58.9956 6.84796 62.7716 6.84796 66.5477 6.84796 69.6194 9.91961 69.6194 13.6957 69.6194 15.5859 71.1532 17.1197 73.0434 17.1197 74.9336 17.1197 76.4674 15.5859 76.4674 13.6957 76.4674 6.14331 70.3238 0 62.7716 0 58.684 0 55.0115 1.80202 52.4999 4.65096 49.9883 1.80202 46.3158 0 42.2282 0 34.676 0 28.5325 6.14331 28.5325 13.6957 28.5325 15.5859 30.0662 17.1197 31.9565 17.1197 33.8467 17.1197 35.3804 15.5859 35.3804 13.6957 35.3804 9.91961 38.4521 6.84796 42.2282 6.84796 46.0043 6.84796 49.0759 9.91961 49.0759 13.6957L49.0759 22.8262 11.413 22.8262C9.52279 22.8262 7.98901 24.36 7.98901 26.2502 7.98901 28.1404 9.52279 29.6741 11.413 29.6741L93.5868 29.6741C95.477 29.6741 97.0108 28.1404 97.0108 26.2502 97.0108 24.36 95.477 22.826 93.5868 22.826Z" fill="#4C4F52" fill-rule="nonzero" fill-opacity="1" transform="matrix(1 0 0 1.00953 3212 590)"/><path d="M94.4137 70.7607 10.5861 70.7607C14.7925 78.9601 23.8581 85.5796 35.3804 88.9269L35.3804 98.1521 25.1087 98.1521C23.2185 98.1521 21.6847 99.6859 21.6847 101.576 21.6847 103.466 23.2185 105 25.1087 105L38.8044 105 66.1956 105 79.8913 105C81.7815 105 83.3153 103.466 83.3153 101.576 83.3153 99.6859 81.7815 98.1521 79.8913 98.1521L69.6196 98.1521 69.6196 88.9269C81.1419 85.5796 90.2074 78.9603 94.4137 70.7607Z" fill="#4C4F52" fill-rule="nonzero" fill-opacity="1" transform="matrix(1 0 0 1.00953 3212 590)"/></g></g></g><g><g><g><path d="M105 68.4834 95.2469 54.9927 89.1142 54.9927 89.1142 40.1891 99.9955 40.1891 99.9955 20.1837 89.1142 20.1837 89.1142 15.7569 84.5939 15.7569 84.5939 20.1837 20.4066 20.1837 20.4066 15.7569 15.886 15.7569 15.886 20.1837 5.00464 20.1837 5.00464 40.1891 15.886 40.1891 15.886 54.9927 9.75303 54.9927 0 68.4834 0 72.2019 7.31525 72.2019 7.31525 89.2433 11.8353 89.2433 11.8353 72.2019 15.886 72.2019 15.886 82.063 20.4066 82.063 20.4066 72.2019 84.5939 72.2019 84.5939 82.063 89.1142 82.063 89.1142 72.2019 93.1648 72.2019 93.1648 89.2433 97.6849 89.2433 97.6849 72.2019 105 72.2019 105 68.4834ZM20.4066 54.9927 20.4066 40.1891 84.5939 40.1891 84.5939 54.9927 20.4066 54.9927Z" fill="#4C4F52" fill-rule="nonzero" fill-opacity="1" transform="matrix(1 0 0 1.00952 2947 1692)"/></g></g></g></g></g></svg>