<svg width="784" height="1119" xmlns="http://www.w3.org/2000/svg" xmlns:xlink="http://www.w3.org/1999/xlink" xml:space="preserve" overflow="hidden"><g transform="translate(-1970 -123)"><g><path d="M2362 1238C2362 1238 2752 903.8 2752 513.9 2752 298.564 2577.39 124 2362 124 2146.61 124 1972 298.564 1972 513.9 1972 903.8 2362 1238 2362 1238ZM2362 458.2C2392.78 458.2 2417.71 483.126 2417.71 513.9 2417.71 544.674 2392.78 569.6 2362 569.6 2331.22 569.6 2306.29 544.674 2306.29 513.9 2306.29 483.126 2331.22 458.2 2362 458.2Z" fill="#825E5C" fill-rule="evenodd" fill-opacity="1"/><path d="M1972 513.5C1972 298.385 2146.61 124 2362 124 2577.39 124 2752 298.385 2752 513.5 2752 728.615 2577.39 903 2362 903 2146.61 903 1972 728.615 1972 513.5Z" fill="#825E5C" fill-rule="evenodd" fill-opacity="1"/><g><g><g><path d="M454 296.109 411.829 237.778 385.312 237.778 385.312 173.77 432.361 173.77 432.361 87.2702 385.312 87.2702 385.312 68.1297 365.767 68.1297 365.767 87.2702 88.2341 87.2702 88.2341 68.1297 68.6877 68.1297 68.6877 87.2702 21.6391 87.2702 21.6391 173.77 68.6877 173.77 68.6877 237.778 42.1702 237.778 0 296.109 0 312.187 31.6297 312.187 31.6297 385.87 51.1737 385.87 51.1737 312.187 68.6877 312.187 68.6877 354.824 88.2341 354.824 88.2341 312.187 365.767 312.187 365.767 354.824 385.312 354.824 385.312 312.187 402.826 312.187 402.826 385.87 422.37 385.87 422.37 312.187 454 312.187 454 296.109ZM88.2341 237.778 88.2341 173.77 365.767 173.77 365.767 237.778 88.2341 237.778Z" fill="#E5E5E5" fill-rule="nonzero" fill-opacity="1" transform="matrix(1 0 0 1.0022 2135 286)"/></g></g></g></g></g></svg>