<svg width="784" height="1119" xmlns="http://www.w3.org/2000/svg" xmlns:xlink="http://www.w3.org/1999/xlink" xml:space="preserve" overflow="hidden"><g transform="translate(-2910 -123)"><g><path d="M3304 1238C3304 1238 3694 903.8 3694 513.9 3694 298.564 3519.39 124 3304 124 3088.61 124 2914 298.564 2914 513.9 2914 903.8 3304 1238 3304 1238ZM3304 458.2C3334.78 458.2 3359.71 483.126 3359.71 513.9 3359.71 544.674 3334.78 569.6 3304 569.6 3273.22 569.6 3248.29 544.674 3248.29 513.9 3248.29 483.126 3273.22 458.2 3304 458.2Z" fill="#049372" fill-rule="evenodd" fill-opacity="1"/><path d="M2914 513.5C2914 298.385 3088.61 124 3304 124 3519.39 124 3694 298.385 3694 513.5 3694 728.615 3519.39 903 3304 903 3088.61 903 2914 728.615 2914 513.5Z" fill="#049372" fill-rule="evenodd" fill-opacity="1"/><g><g><g><path d="M234.398 426.6 66.4175 426.6C66.4175 426.6 146.882 266.899 27.0531 266.899L27.0531 213.674 346.616 213.674C346.616 213.674 348.939 246.175 290.213 285.406 199.76 345.761 234.398 426.6 234.398 426.6Z" fill="#E5E5E5" fill-rule="evenodd" fill-opacity="1" transform="matrix(1 0 0 1.0022 3157.12 299.382)"/><path d="M133.529 160.235 346.616 160.235 346.616 186.38 133.529 186.38Z" fill="#E5E5E5" fill-rule="evenodd" fill-opacity="1" transform="matrix(1 0 0 1.0022 3157.12 299.382)"/><path d="M0.320471 0.240353 0.320471 186.487 106.824 186.487 106.824 0.240353 0.320471 0.240353ZM80.1177 81.0791 53.4118 81.0791 53.4118 26.7059 80.1177 26.7059 80.1177 81.0791Z" fill="#E5E5E5" fill-rule="evenodd" fill-opacity="1" transform="matrix(1 0 0 1.0022 3157.12 299.382)"/></g></g></g></g></g></svg>