<svg width="784" height="1118" xmlns="http://www.w3.org/2000/svg" xmlns:xlink="http://www.w3.org/1999/xlink" xml:space="preserve" overflow="hidden"><g transform="translate(-3854 -137)"><g><path d="M4246 1252C4246 1252 4636 917.8 4636 527.9 4636 312.564 4461.39 138 4246 138 4030.61 138 3856 312.564 3856 527.9 3856 917.8 4246 1252 4246 1252ZM4246 472.2C4276.78 472.2 4301.71 497.126 4301.71 527.9 4301.71 558.674 4276.78 583.6 4246 583.6 4215.22 583.6 4190.29 558.674 4190.29 527.9 4190.29 497.126 4215.22 472.2 4246 472.2Z" fill="#3A3A3A" fill-rule="evenodd" fill-opacity="1"/><path d="M3856 528C3856 312.609 4030.61 138 4246 138 4461.39 138 4636 312.609 4636 528 4636 743.391 4461.39 918 4246 918 4030.61 918 3856 743.391 3856 528Z" fill="#3A3A3A" fill-rule="evenodd" fill-opacity="1"/><g><g><g><path d="M4116.53 733.106C4117.04 745.343 4127.11 755 4139.35 755L4352.65 755C4364.89 755 4374.96 745.343 4375.48 733.106L4390.71 411.552 4101.29 411.552 4116.53 733.106ZM4294.25 491.42C4294.25 486.296 4298.41 482.141 4303.53 482.141L4318.37 482.141C4323.5 482.141 4327.66 486.295 4327.66 491.42L4327.66 675.131C4327.66 680.256 4323.5 684.411 4318.37 684.411L4303.53 684.411C4298.41 684.411 4294.25 680.258 4294.25 675.131L4294.25 491.42ZM4229.3 491.42C4229.3 486.296 4233.46 482.141 4238.58 482.141L4253.42 482.141C4258.55 482.141 4262.7 486.295 4262.7 491.42L4262.7 675.131C4262.7 680.256 4258.55 684.411 4253.42 684.411L4238.58 684.411C4233.46 684.411 4229.3 680.258 4229.3 675.131L4229.3 491.42ZM4164.35 491.42C4164.35 486.296 4168.5 482.141 4173.63 482.141L4188.47 482.141C4193.59 482.141 4197.75 486.295 4197.75 491.42L4197.75 675.131C4197.75 680.256 4193.6 684.411 4188.47 684.411L4173.63 684.411C4168.5 684.411 4164.35 680.258 4164.35 675.131L4164.35 491.42Z" fill="#E5E5E5" fill-rule="nonzero" fill-opacity="1"/><path d="M4400.85 324.388 4302.45 324.388 4302.45 305.785C4302.45 303.143 4300.31 301 4297.67 301L4194.33 301C4191.69 301 4189.55 303.143 4189.55 305.785L4189.55 324.387 4091.15 324.387C4083.23 324.387 4076.81 330.806 4076.81 338.725L4076.81 383.768 4415.19 383.768 4415.19 338.726C4415.19 330.808 4408.77 324.388 4400.85 324.388Z" fill="#E5E5E5" fill-rule="nonzero" fill-opacity="1"/></g></g></g></g></g></svg>