<svg width="784" height="783" xmlns="http://www.w3.org/2000/svg" xmlns:xlink="http://www.w3.org/1999/xlink" xml:space="preserve" overflow="hidden"><defs><clipPath id="clip0"><rect x="2195" y="559" width="784" height="783"/></clipPath><clipPath id="clip1"><rect x="2195" y="559" width="784" height="783"/></clipPath></defs><g clip-path="url(#clip0)" transform="translate(-2195 -559)"><g clip-path="url(#clip1)"><path d="M2196 677.848C2196 614.419 2247.42 563 2310.85 563L2860.15 563C2923.58 563 2975 614.419 2975 677.848L2975 1227.15C2975 1290.58 2923.58 1342 2860.15 1342L2310.85 1342C2247.42 1342 2196 1290.58 2196 1227.15Z" fill="#252529" fill-rule="evenodd" fill-opacity="1"/><g><g><g><path d="M296 0C275.477 0 259 16.4765 259 37L259 74C259 75.1562 259 76.168 259.145 77.1797 166.355 92.789 92.9336 166.355 77.3242 259.145 76.168 259 75.1562 259 74 259L37 259C16.4765 259-2.46469e-14 275.477-2.46469e-14 296-2.46469e-14 316.523 16.4765 333 37 333L74 333C75.1562 333 76.168 333 77.3242 332.855 92.9336 425.645 166.355 499.211 259.145 514.82 259.145 515.832 259 516.844 259 518L259 555C259 575.523 275.477 592 296 592 316.523 592 333 575.523 333 555L333 518C333 516.844 333 515.832 332.855 514.82 425.645 499.211 499.211 425.645 514.82 332.855 515.977 332.855 516.988 333 518 333L555 333C575.523 333 592 316.523 592 296 592 275.477 575.523 259 555 259L518 259C516.988 259 515.977 259 514.82 259.145 499.211 166.355 425.645 92.789 332.855 77.1797 332.855 76.168 333 75.0117 333 74L333 37C333 16.4765 316.523-1.64313e-14 296-1.64313e-14ZM296.145 148C377.516 148 444.144 214.484 444.144 296 444.144 377.516 377.516 444 296.145 444 214.629 444 148.145 377.516 148.145 296 148.145 214.484 214.629 148 296.145 148ZM296 222C255.098 222 222 255.098 222 296 222 336.902 255.098 370 296 370 336.902 370 370 336.902 370 296 370 255.098 336.902 222 296 222Z" fill="#E5E5E5" fill-rule="nonzero" fill-opacity="1" transform="matrix(1 0 0 1.00169 2289 656)"/></g></g></g></g></g></svg>