<svg width="784" height="784" xmlns="http://www.w3.org/2000/svg" xmlns:xlink="http://www.w3.org/1999/xlink" xml:space="preserve" overflow="hidden"><g transform="translate(-962 -1104)"><g><path d="M966 1222.85C966 1159.42 1017.42 1108 1080.85 1108L1630.15 1108C1693.58 1108 1745 1159.42 1745 1222.85L1745 1772.15C1745 1835.58 1693.58 1887 1630.15 1887L1080.85 1887C1017.42 1887 966 1835.58 966 1772.15Z" fill="#252529" fill-rule="evenodd" fill-opacity="1"/><g><g><g><path d="M545.458 86.125 143.542 86.125C111.831 86.125 86.125 111.831 86.125 143.542L86.125 177.176C86.125 192.404 92.1742 207.008 102.942 217.775L270.266 385.099C281.034 395.868 287.083 410.472 287.083 425.699L287.083 574.167 287.083 582.369C287.083 600.53 309.042 609.625 321.884 596.783L344.5 574.167 385.099 533.568C395.868 522.799 401.917 508.195 401.917 492.968L401.917 425.699C401.917 410.472 407.966 395.868 418.734 385.099L586.058 217.775C596.826 207.008 602.875 192.404 602.875 177.176L602.875 143.542C602.875 111.831 577.17 86.125 545.458 86.125Z" stroke="#E5E5E5" stroke-width="4.57048" stroke-linecap="round" stroke-linejoin="round" stroke-miterlimit="4" stroke-opacity="1" fill="#E5E5E5" fill-rule="nonzero" fill-opacity="1" transform="matrix(1.00726 0 0 1 1008 1153)"/></g></g></g></g></g></svg>