<svg width="784" height="789" xmlns="http://www.w3.org/2000/svg" xmlns:xlink="http://www.w3.org/1999/xlink" xml:space="preserve" overflow="hidden"><g transform="translate(-2195 -2268)"><g><path d="M2196 2387.85C2196 2324.42 2247.42 2273 2310.85 2273L2860.15 2273C2923.58 2273 2975 2324.42 2975 2387.85L2975 2938.15C2975 3001.58 2923.58 3053 2860.15 3053L2310.85 3053C2247.42 3053 2196 3001.58 2196 2938.15Z" fill="#252529" fill-rule="evenodd" fill-opacity="1"/><g><g><g><path d="M336.417 152.917C235.072 152.917 152.917 235.072 152.917 336.417 152.917 437.761 235.072 519.917 336.417 519.917 437.761 519.917 519.917 437.761 519.917 336.417 519.917 235.072 437.761 152.917 336.417 152.917ZM91.75 336.417C91.75 201.291 201.291 91.75 336.417 91.75 471.543 91.75 581.083 201.291 581.083 336.417 581.083 392.956 561.905 445.018 529.7 486.446L633.292 590.041C645.235 601.984 645.235 621.35 633.292 633.292 621.35 645.235 601.984 645.235 590.041 633.292L486.446 529.7C445.018 561.905 392.956 581.083 336.417 581.083 201.291 581.083 91.75 471.543 91.75 336.417ZM214.083 336.417C214.083 319.526 227.776 305.833 244.667 305.833L428.167 305.833C445.058 305.833 458.75 319.526 458.75 336.417 458.75 353.308 445.058 367 428.167 367L244.667 367C227.776 367 214.083 353.308 214.083 336.417Z" fill="#E5E5E5" fill-rule="evenodd" fill-opacity="1" transform="matrix(1.00136 0 0 1 2218 2296)"/></g></g></g></g></g></svg>