<svg width="784" height="784" xmlns="http://www.w3.org/2000/svg" xmlns:xlink="http://www.w3.org/1999/xlink" xml:space="preserve" overflow="hidden"><g transform="translate(-2195 -1420)"><g><path d="M2196 1535.85C2196 1472.42 2247.42 1421 2310.85 1421L2860.15 1421C2923.58 1421 2975 1472.42 2975 1535.85L2975 2086.15C2975 2149.58 2923.58 2201 2860.15 2201L2310.85 2201C2247.42 2201 2196 2149.58 2196 2086.15Z" fill="#252529" fill-rule="evenodd" fill-opacity="1"/><g><g><g><path d="M336.417 152.917C235.072 152.917 152.917 235.072 152.917 336.417 152.917 437.761 235.072 519.917 336.417 519.917 437.761 519.917 519.917 437.761 519.917 336.417 519.917 235.072 437.761 152.917 336.417 152.917ZM91.75 336.417C91.75 201.291 201.291 91.75 336.417 91.75 471.543 91.75 581.083 201.291 581.083 336.417 581.083 392.956 561.904 445.018 529.7 486.446L633.292 590.041C645.235 601.984 645.235 621.349 633.292 633.292 621.349 645.235 601.984 645.235 590.041 633.292L486.446 529.7C445.018 561.904 392.956 581.083 336.417 581.083 201.291 581.083 91.75 471.543 91.75 336.417ZM336.417 214.083C353.308 214.083 367 227.776 367 244.667L367 305.833 428.167 305.833C445.058 305.833 458.75 319.525 458.75 336.417 458.75 353.308 445.058 367 428.167 367L367 367 367 428.167C367 445.058 353.308 458.75 336.417 458.75 319.525 458.75 305.833 445.058 305.833 428.167L305.833 367 244.667 367C227.776 367 214.083 353.308 214.083 336.417 214.083 319.525 227.776 305.833 244.667 305.833L305.833 305.833 305.833 244.667C305.833 227.776 319.525 214.083 336.417 214.083Z" fill="#E5E5E5" fill-rule="evenodd" fill-opacity="1" transform="matrix(1.00136 0 0 1 2218 1444)"/></g></g></g></g></g></svg>