<svg width="784" height="1119" xmlns="http://www.w3.org/2000/svg" xmlns:xlink="http://www.w3.org/1999/xlink" xml:space="preserve" overflow="hidden"><g transform="translate(-1026 -123)"><g><path d="M1420 1238C1420 1238 1810 903.8 1810 513.9 1810 298.564 1635.39 124 1420 124 1204.61 124 1030 298.564 1030 513.9 1030 903.8 1420 1238 1420 1238ZM1420 458.2C1450.78 458.2 1475.71 483.126 1475.71 513.9 1475.71 544.674 1450.78 569.6 1420 569.6 1389.22 569.6 1364.29 544.674 1364.29 513.9 1364.29 483.126 1389.22 458.2 1420 458.2Z" fill="#D35400" fill-rule="evenodd" fill-opacity="1"/><path d="M1030 513.5C1030 298.385 1204.61 124 1420 124 1635.39 124 1810 298.385 1810 513.5 1810 728.615 1635.39 903 1420 903 1204.61 903 1030 728.615 1030 513.5Z" fill="#D35400" fill-rule="evenodd" fill-opacity="1"/><g><g><g><path d="M114.766 0 82.2656 65 97.5 65 131.523 0 114.766 0ZM244.766 0 212.266 65 227.5 65 261.523 0 244.766 0ZM374.765 0 342.265 65 357.5 65 391.523 0 374.765 0ZM33.2617 32.5 0.761718 97.5 15.9961 97.5 50.083 32.5 33.2617 32.5ZM163.516 32.5 131.016 97.5 146.25 97.5 180.273 32.5 163.516 32.5ZM293.515 32.5 261.016 97.5 276.25 97.5 310.273 32.5 293.515 32.5ZM423.515 32.5 391.015 97.5 406.25 97.5 440.273 32.5 423.515 32.5ZM97.5 130 0 227.5 48.75 227.5 48.75 455 97.5 455 97.5 227.5 357.5 227.5 357.5 455 406.25 455 406.25 227.5 455 227.5 357.5 130 97.5 130Z" fill="#E5E5E5" fill-rule="nonzero" fill-opacity="1" transform="matrix(1 0 0 1 1193 286)"/></g></g></g></g></g></svg>