<svg width="783" height="1118" xmlns="http://www.w3.org/2000/svg" xmlns:xlink="http://www.w3.org/1999/xlink" xml:space="preserve" overflow="hidden"><g transform="translate(-87 -128)"><g><path d="M478 1243C478 1243 868 908.8 868 518.9 868 303.564 693.391 129 478 129 262.609 129 88 303.564 88 518.9 88 908.8 478 1243 478 1243ZM478 463.2C508.782 463.2 533.714 488.126 533.714 518.9 533.714 549.674 508.782 574.6 478 574.6 447.218 574.6 422.286 549.674 422.286 518.9 422.286 488.126 447.218 463.2 478 463.2Z" fill="#C8413D" fill-rule="evenodd" fill-opacity="1"/><path d="M88 519C88 303.609 262.609 129 478 129 693.391 129 868 303.609 868 519 868 734.391 693.391 909 478 909 262.609 909 88 734.391 88 519Z" fill="#C8413D" fill-rule="evenodd" fill-opacity="1"/><g><g><g><path d="M478 476.5C535.161 476.5 581.5 430.161 581.5 373 581.5 315.839 535.161 269.5 478 269.5 420.839 269.5 374.5 315.839 374.5 373 374.5 430.161 420.839 476.5 478 476.5Z" fill="#E5E5E5" fill-rule="nonzero" fill-opacity="1"/><path d="M685 649C685 591.837 638.663 545.5 581.5 545.5L374.5 545.5C317.339 545.5 271 591.837 271 649L271 752.5 685 752.5 685 649Z" fill="#E5E5E5" fill-rule="nonzero" fill-opacity="1"/></g></g></g></g></g></svg>