<svg width="1824" height="1829" xmlns="http://www.w3.org/2000/svg" xmlns:xlink="http://www.w3.org/1999/xlink" xml:space="preserve" overflow="hidden"><g transform="translate(-2158 -215)"><g><path d="M2824.11 557.996C2933.73 361.332 2988.55 263 3070.5 263 3152.45 263 3207.27 361.331 3316.89 557.995L3345.25 608.874C3376.41 664.76 3391.98 692.703 3416.27 711.14 3440.56 729.577 3470.8 736.42 3531.3 750.109L3586.38 762.57C3799.26 810.738 3905.71 834.821 3931.03 916.257 3956.35 997.69 3883.79 1082.55 3738.66 1252.26L3701.11 1296.17C3659.87 1344.39 3639.24 1368.5 3629.97 1398.34 3620.7 1428.17 3623.81 1460.34 3630.04 1524.69L3635.72 1583.27C3657.66 1809.7 3668.64 1922.92 3602.34 1973.25 3536.03 2023.58 3436.37 1977.69 3237.05 1885.92L3185.48 1862.17C3128.84 1836.09 3100.52 1823.05 3070.5 1823.05 3040.48 1823.05 3012.16 1836.09 2955.52 1862.17L2903.95 1885.92C2704.63 1977.69 2604.96 2023.58 2538.66 1973.25 2472.36 1922.92 2483.33 1809.7 2505.28 1583.27L2510.95 1524.69C2517.19 1460.34 2520.31 1428.17 2511.03 1398.34 2501.75 1368.5 2481.13 1344.39 2439.89 1296.17L2402.34 1252.26C2257.21 1082.55 2184.65 997.69 2209.97 916.257 2235.29 834.821 2341.74 810.738 2554.62 762.57L2609.7 750.109C2670.19 736.42 2700.44 729.577 2724.73 711.14 2749.01 692.703 2764.59 664.76 2795.74 608.874L2824.11 557.996Z" stroke="#2C3E50" stroke-width="91.6667" stroke-linecap="butt" stroke-linejoin="miter" stroke-miterlimit="8" stroke-opacity="1" fill="none" fill-rule="evenodd"/></g></g></svg>