<svg width="1829" height="1829" xmlns="http://www.w3.org/2000/svg" xmlns:xlink="http://www.w3.org/1999/xlink" xml:space="preserve" overflow="hidden"><g transform="translate(-169 -215)"><g><path d="M836.105 557.996C945.733 361.332 1000.54 263 1082.5 263 1164.45 263 1219.27 361.331 1328.89 557.995L1357.25 608.874C1388.41 664.76 1403.98 692.703 1428.27 711.14 1452.56 729.577 1482.8 736.42 1543.3 750.109L1598.38 762.57C1811.26 810.738 1917.71 834.821 1943.03 916.257 1968.35 997.69 1895.79 1082.55 1750.66 1252.26L1713.11 1296.17C1671.87 1344.39 1651.24 1368.5 1641.97 1398.34 1632.7 1428.17 1635.81 1460.34 1642.04 1524.69L1647.72 1583.27C1669.66 1809.7 1680.64 1922.92 1614.34 1973.25 1548.03 2023.58 1448.37 1977.69 1249.05 1885.92L1197.48 1862.17C1140.84 1836.09 1112.52 1823.05 1082.5 1823.05 1052.47 1823.05 1024.16 1836.09 967.518 1862.17L915.951 1885.92C716.625 1977.69 616.963 2023.58 550.663 1973.25 484.363 1922.92 495.334 1809.7 517.276 1583.27L522.952 1524.69C529.188 1460.34 532.306 1428.17 523.028 1398.34 513.752 1368.5 493.132 1344.39 451.89 1296.17L414.342 1252.26C269.211 1082.55 196.645 997.69 221.97 916.257 247.294 834.821 353.737 810.738 566.622 762.57L621.698 750.109C682.193 736.42 712.44 729.577 736.727 711.14 761.014 692.703 776.591 664.76 807.744 608.874L836.105 557.996Z" stroke="#2C3E50" stroke-width="91.6667" stroke-linecap="butt" stroke-linejoin="miter" stroke-miterlimit="8" stroke-opacity="1" fill="#F7E8A8" fill-rule="evenodd" fill-opacity="1"/></g></g></svg>