<svg width="789" height="784" xmlns="http://www.w3.org/2000/svg" xmlns:xlink="http://www.w3.org/1999/xlink" xml:space="preserve" overflow="hidden"><g transform="translate(-1805 -586)"><g><path d="M1810 702.848C1810 639.419 1861.42 588 1924.85 588L2475.15 588C2538.58 588 2590 639.419 2590 702.848L2590 1252.15C2590 1315.58 2538.58 1367 2475.15 1367L1924.85 1367C1861.42 1367 1810 1315.58 1810 1252.15Z" fill="#D64541" fill-rule="evenodd" fill-opacity="1"/><path d="M1976.56 795.904 2018.12 754.289 2200 935.939 2381.88 754.289 2423.44 795.904 2241.61 977.501 2423.44 1159.1 2381.88 1200.71 2200 1019.06 2018.12 1200.71 1976.56 1159.1 2158.39 977.501Z" fill="#FFFFFF" fill-rule="evenodd" fill-opacity="1"/></g></g></svg>